<svg width="1024" height="1024" viewBox="0 0 200 200" fill="none" xmlns="http://www.w3.org/2000/svg">
  <title>AverQel NeoSIS application icon</title>
  <defs>
    <linearGradient id="rainbow" x1="0%" y1="0%" x2="100%" y2="100%">
      <stop offset="0%" stop-color="#ff1744"/>
      <stop offset="18%" stop-color="#ff8a00"/>
      <stop offset="36%" stop-color="#ffd600"/>
      <stop offset="54%" stop-color="#31d158"/>
      <stop offset="70%" stop-color="#00c7e8"/>
      <stop offset="84%" stop-color="#397bff"/>
      <stop offset="100%" stop-color="#c13cff"/>
    </linearGradient>
  </defs>
  <rect x="4" y="4" width="192" height="192" rx="48" fill="#111827"/>
  <g transform="translate(22 45) scale(1.2)">
    <path d="M12 27C16 15 28 8 43 10L53 2L53 15C66 15 79 21 90 31C99 39 106 48 116 51C108 58 99 60 90 57C87 69 79 78 67 84C52 91 35 88 23 79C12 71 7 59 8 46C8 38 9 32 12 27C16 23 19 20 24 18L22 2L31 9L43 10Z M70 35A4 4 0 1 0 70 43A4 4 0 1 0 70 35ZM20 50C29 39 42 35 56 39C47 43 41 49 38 57C35 66 39 73 46 80C34 78 25 72 20 64C17 59 17 54 20 50Z" fill="url(#rainbow)" fill-rule="evenodd" clip-rule="evenodd"/>
    <path d="M82 25C91 33 99 43 106 49C98 49 91 52 85 56" fill="none" stroke="url(#rainbow)" stroke-width="3" stroke-linecap="round" opacity=".92"/>
  </g>
</svg>
